<svg height="512" viewBox="0 0 59 60" width="512" xmlns="http://www.w3.org/2000/svg"><g id="Page-1" fill="none" fill-rule="evenodd"><g id="093---Cotton" fill-rule="nonzero" transform="translate(-1)"><g id="Icons" transform="translate(2 1)"><path id="Shape" d="m56 26c.0015329 2.5520362-1.2146131 4.9516666-3.2736557 6.4593916-2.0590425 1.507725-4.7138723 1.9425999-7.1463443 1.1706084 1.1954095-.9001457 2.0488692-2.1803352 2.42-3.63 0 0-5 1-7 0s-2-2-5-1c.25-.18 2.89-2.22 1-7-.8592296 1.3569108-2.3989336 2.1267628-4 2-3 0-5 1-5 5 0-4-2-5-5-5-1.6010664.1267628-3.1407704-.6430892-4-2-1.91 4.77.73 6.81 1 7-3-1-3 0-5 1s-7 0-7 0c.37113081 1.4496648 1.22459054 2.7298543 2.42 3.63-2.97559248.9321466-6.22164391.0504281-8.31671923-2.2590539-2.09507532-2.3094821-2.65734709-5.6258246-1.44059838-8.4968124 1.21674871-2.8709877 3.99076546-4.7733831 7.10731761-4.8741337-1.92069494-2.3989362-2.29745566-5.686047-.96936124-8.45735158 1.32809441-2.77130456 4.12626334-4.53689144 7.19936124-4.54264842 2.3388992.08851963 4.5258448 1.1819924 6 3 .1303297-4.3631537 3.6368463-7.86967032 8-8 4.3652825.12539592 7.8746041 3.6347175 8 8 1.4758248-1.8159272 3.6617634-2.90889647 6-3 3.0730979.00575698 5.8712668 1.77134386 7.1993612 4.54264842 1.3280945 2.77130458.9513337 6.05841538-.9693612 8.45735158 4.3282045.124487 7.7717899 3.670006 7.77 8z" fill="#f5f5f5"/><path id="Shape" d="m48.23 18c1.9206949-2.3989362 2.2974557-5.686047.9693612-8.45735158-1.3280944-2.77130456-4.1262633-4.53689144-7.1993612-4.54264842-.4678028.00213129-.9339474.05578822-1.39.16 3.7213545.76456526 6.3917478 4.04091635 6.39 7.84.0022095 1.8205636-.622863 3.5863051-1.77 5 4.0590639.1367968 7.371531 3.2933358 7.7037335 7.3410951s-2.421288 7.7021358-6.4037335 8.4989049c2.975523.6026815 6.0357912-.5308436 7.9007495-2.9264422 1.8649583-2.3955987 2.2132027-5.6404171.8990688-8.3772061-1.3141338-2.7367891-4.0641702-4.4938949-7.0998183-4.5363517z" fill="#cfd8dc"/><path id="Shape" d="m48 30c-.3711308 1.4496648-1.2245905 2.7298543-2.42 3.63-1.3347213.9473821-2.9442889 1.4288466-4.58 1.37-6 0-9 0-9 3-.0002647 1.2263758-.8182816 2.302068-2 2.63-.6423643.2303329-1.3177475.3552788-2 .37-.6832554-.0220116-1.3585327-.1536907-2-.39-1.1786106-.3199611-1.9975932-1.3887334-2-2.61 0-3-3-3-9-3-1.6357111.0588466-3.2452787-.4226179-4.58-1.37-1.19540946-.9001457-2.04886919-2.1803352-2.42-3.63 0 0 5 1 7 0s2-2 5-1c-.25-.18-2.89-2.22-1-7 .8592296 1.3569108 2.3989336 2.1267628 4 2 3 0 5 1 5 5 0-4 2-5 5-5 1.6010664.1267628 3.1407704-.6430892 4-2 1.91 4.77-.73 6.81-1 7 3-1 3 0 5 1s7 0 7 0z" fill="#60a917"/><path id="Shape" d="m44.89 30.4c-.424209 1.2862239-1.2299254 2.4128317-2.31 3.23-1.3347213.9473821-2.9442889 1.4288466-4.58 1.37-6 0-9 0-9 3-.0002647 1.2263758-.8182816 2.302068-2 2.63l-.48.15c.4830909.1306784.9797863.2045115 1.48.22.6822525-.0147212 1.3576357-.1396671 2-.37 1.1817184-.327932 1.9997353-1.4036242 2-2.63 0-3 3-3 9-3 1.6357111.0588466 3.2452787-.4226179 4.58-1.37 1.1954095-.9001457 2.0488692-2.1803352 2.42-3.63-1.0281504.1927852-2.0665282.3263386-3.11.4z" fill="#549414"/><path id="Shape" d="m27.91 56.59c-.2586959.8379096-1.0330645 1.4095639-1.91 1.41-.1999928-.0012007-.3987449-.0315188-.59-.09-1.0545015-.3262848-1.6452829-1.445189-1.32-2.5 1.450265-4.7938643 2.0956832-9.79501 1.91-14.8.6414673.2363093 1.3167446.3679884 2 .39.6822525-.0147212 1.3576357-.1396671 2-.37.1854822 5.3987219-.5206595 10.7910763-2.09 15.96z" fill="#008a00"/></g><g id="Icons_copy" fill="#000"><path id="Shape" d="m52 18.21c.6777437-1.2985264 1.0214195-2.7454016 1-4.21 0-4.97056275-4.0294373-9-9-9-1.9277069.03651646-3.7872259.71974883-5.28 1.94-1.0031952-4.01884247-4.5785302-6.86434984-8.72-6.94-4.1452158.071171-7.7258363 2.91762078-8.73 6.94-1.4900941-1.21815185-3.3457409-1.90125523-5.27-1.94-4.9705627 0-9 4.02943725-9 9-.00602781 1.4688731.35489311 2.9159942 1.05 4.21-4.49035016.9873504-7.51459749 5.2004061-7.01364302 9.7706523.50095447 4.5702461 4.36603191 8.0281482 8.96364302 8.0193477.7495018-.0085931 1.4951006-.1093497 2.22-.3 1.4325304.8900527 3.0940047 1.3419181 4.78 1.3 6.38 0 8 .2 8 2-.0293438 1.3820713.7529961 2.6533735 2 3.25.1282832 4.6884864-.4928691 9.3673838-1.84 13.86-.2400251.759611-.1680699 1.5834977.2 2.29.5644868 1.0800937 1.7262889 1.7113645 2.9396438 1.5972696 1.2133549-.1140948 2.237112-.9508793 2.5903562-2.1172696 1.5187632-5.0602319 2.2308258-10.3281453 2.11-15.61 1.2519474-.601591 2.0347343-1.8814477 2-3.27 0-1.8 1.62-2 8-2 1.6859953.0419181 3.3474696-.4099473 4.78-1.3.7248994.1906503 1.4704982.2914069 2.22.3 4.6074737.0349832 8.4972342-3.4155081 9.0119911-7.9942703.5147568-4.5787622-2.5117626-8.8068004-7.0119911-9.7957297zm-23 39.09c-.1632229.5221414-.7157183.8162115-1.24.66-.2577105-.0760872-.4739564-.252688-.6-.49-.11957-.2354721-.1411392-.5086825-.06-.76 1.3318005-4.4731075 1.9725229-9.1234034 1.9-13.79.3312432.0483474.6652834.0750706 1 .08.3347536-.0041377.6688462-.0308651 1-.08.0711411 4.8673141-.6033396 9.7168307-2 14.38zm4-18.3c-.0297369.8163519-.5969365 1.5141299-1.39 1.71h-.09c-.4896752.1707898-1.0018408.2685056-1.52.29-.5734429-.0167492-1.1405534-.1247703-1.68-.32-.7645314-.2043126-1.3023709-.8888356-1.32-1.68 0-4-3.76-4-10-4-2.1685346.1572199-4.2463513-.8970797-5.4-2.74 1.76.22 4.37.37 5.85-.37.4549741-.2279429.8927925-.4886286 1.31-.78.85-.56 1.14-.76 2.92-.16.4745088.1559491.9913217-.0621432 1.2106525-.5108889.2193308-.4487458.0739104-.9905139-.3406525-1.2691111 0 0-1.73-1.2-1.1-4.24 1.0372898.7295318 2.2823345 1.1047989 3.55 1.07 2.53 0 4 .65 4 4 0 .5522847.4477153 1 1 1s1-.4477153 1-1c0-3.35 1.47-4 4-4 1.2676655.0347989 2.5127102-.3404682 3.55-1.07.61 3-1 4.19-1.1 4.24-.5053405.2402439-.7202438.8446595-.48 1.35.2402439.5053405.8446595.7202438 1.35.48 1.78-.6 2.07-.4 2.92.16.4172075.2913714.8550259.5520571 1.31.78 1.48.74 4.1.59 5.87.37-1.1697423 1.8304846-3.2547656 2.8653025-5.42 2.69-6.24 0-10 0-10 4zm17-5c-.12 0-.23 0-.35 0 .6565158-.8188787 1.1181615-1.7763662 1.35-2.8.0688711-.3294419-.032598-.6714304-.27-.91-.2387753-.2513353-.5906891-.3610718-.93-.29-1.8.36-5.12.7-6.35.09-.3791935-.1984143-.7464845-.418789-1.1-.66-.6043103-.4799621-1.3326232-.7782236-2.1-.86.6999717-1.9623218.5847216-4.1232618-.32-6-.1440215-.3654416-.4886485-.6127233-.8809664-.6321236-.392318-.0194004-.7596604.1926741-.9390336.5421236-.6788716 1.0393442-1.8728604 1.6229015-3.11 1.52-1.71 0-3.79.27-5 2-1.21-1.76-3.29-2-5-2-1.222051.1114569-2.4097463-.4422917-3.11-1.45-.1694502-.3362797-.5134418-.5488587-.89-.55-.3951359.0155566-.7439926.2625-.89.63-.9047216 1.8767382-1.0199717 4.0376782-.32 6-.7673768.0817764-1.4956897.3800379-2.1.86-.3535155.241211-.7208065.4615857-1.1.66-1.23.61-4.55.27-6.35-.09-.32944187-.0688711-.67143035.032598-.91.27-.2464379.2180442-.36983691.5433688-.33.87.23183849 1.0236338.69348423 1.9811213 1.35 2.8-.12 0-.23 0-.35 0-3.57408585-.0307004-6.55100642-2.7490991-6.90538309-6.3057055s2.02762392-6.8089626 5.52538309-7.5442945c.01992705.5403388.14919757 1.0710283.38 1.56.16695016.3505545.52173063.5727797.91.57.1460399.0012376.2901873-.0330832.42-.1.4997404-.2347915.7146165-.8301775.48-1.33-.222744-.485005-.242398-1.0389198-.0545889-1.5384921.1878091-.4995722.5675007-.9033572 1.0545889-1.1215079.3302381-.1476079.5550189-.4620503.5878153-.8222859.0327964-.3602357-.1315049-.7101007-.4296577-.9149182s-.6836726-.2326547-1.0081576-.0727959c-.4188042.2007898-.7981557.4751422-1.12.81-.5345462-.979481-.82283222-2.0742814-.84-3.19 0-3.8659932 3.1340068-7 7-7 1.6429063.05196798 3.2091803.70695532 4.4 1.84-.4037166.37030348-.7270655.81958818-.95 1.32-.2253043.5026133-.0017535 1.0927874.5 1.32.4972264.2279343 1.0853245.0140805 1.32-.48.4544252-1.00350695 1.6347735-1.45060858 2.64-1 .4941747.1869275 1.0484959-.04282918 1.2655309-.52454103s.0218859-1.04914201-.4455309-1.29545897c-.5013594-.22152232-1.0419639-.34052333-1.59-.35.6602991-3.29767432 3.4990047-5.7101603 6.86-5.83 3.3642709.07521454 6.2207635 2.48616094 6.86 5.79-.5450124.00779713-1.082681.12690094-1.58.35-.5136248.22643675-.7464367.82637518-.52 1.34s.8263752.7464367 1.34.52c.4898422-.20278536 1.0401578-.20278536 1.53 0 .4852847.1774329.8830676.535796 1.11 1 .1072815.2427867.3066867.4329607.5542822.5286226.2475954.0956619.5230654.0889623.7657178-.0186226.2427867-.1072815.4329607-.3066867.5286226-.5542822.0956619-.2475954.0889623-.5230654-.0186226-.7657178-.2345805-.50962862-.5755559-.9631259-1-1.33 1.1985622-1.14234688 2.7751867-1.80431565 4.43-1.86 3.8659932 0 7 3.1340068 7 7-.0018712 1.1071341-.2693583 2.1976586-.78 3.18-.3198276-.3301542-.6956398-.6010098-1.11-.8-.2410827-.1158411-.5185241-.1302755-.7703263-.0400777-.2518023.0901978-.4569765.2775094-.5696737.5200777-.2346165.4998225-.0197404 1.0952085.48 1.33.4870882.2181507.8667798.6219357 1.0545889 1.1215079.1878091.4995723.1681551 1.0534871-.0545889 1.5384921-.2346165.4998225-.0197404 1.0952085.48 1.33.1298127.0669168.2739601.1012376.42.1.3882694.0027797.7430498-.2194455.91-.57.2308024-.4889717.360073-1.0196612.38-1.56 3.5083886.7382228 5.8918763 4.0079037 5.5211161 7.5738958-.3707602 3.5659922-3.3759016 6.2754113-6.9611161 6.2761042z"/></g></g></g></svg>