<?xml version="1.0"?>
<svg xmlns="http://www.w3.org/2000/svg" viewBox="0 0 64 64" width="512" height="512"><g id="flat"><path d="M46.333,22.667,51,18a2.12,2.12,0,0,0,0-3l0,0a2.12,2.12,0,0,0-3,0l2-2a2.12,2.12,0,0,0,0-3l0,0a2.12,2.12,0,0,0-3,0l2-2a2.12,2.12,0,0,0,0-3l0,0a2.12,2.12,0,0,0-3,0L44,7a2.12,2.12,0,0,0,0-3l0,0a2.12,2.12,0,0,0-3,0L29,16V7a2,2,0,0,0-4,0V20l-3.714,5.571-6.545,7.036L3,45v9H16l6.816-9.737Z" style="fill:#ffd782"/><path d="M51.706,14.293a3.149,3.149,0,0,0-.939-.647,3.121,3.121,0,0,0-.061-4.353,3.149,3.149,0,0,0-.939-.647,3.121,3.121,0,0,0-.061-4.353,3.2,3.2,0,0,0-4.352-.06,3.138,3.138,0,0,0-.648-.94,3.2,3.2,0,0,0-4.413,0L30,13.586V7a3,3,0,0,0-6,0V19.7l-3.5,5.252-6.484,6.97L2.274,44.312A1,1,0,0,0,2,45v9a1,1,0,0,0,1,1H16a1,1,0,0,0,.819-.427l6.754-9.647L47.01,23.4c.011-.009.021-.019.031-.029l4.666-4.667a3.12,3.12,0,0,0,0-4.414Zm-1.413,3-4.651,4.651-23.5,21.584L22,43.69,15.479,53H4V45.4l11.473-12.11,6.545-7.036.1-.124,3.716-5.573A1,1,0,0,0,26,20V7a1,1,0,0,1,2,0v9a1,1,0,0,0,1.707.707l12-12a1.145,1.145,0,0,1,1.586,0,1.12,1.12,0,0,1,0,1.584L36,13.586A1,1,0,0,0,36,15h0a1,1,0,0,0,1.414,0l7.293-7.293,2-2a1.145,1.145,0,0,1,1.586,0,1.12,1.12,0,0,1,0,1.584l-2,2-7,7,1.414,1.414,7-7a1.145,1.145,0,0,1,1.586,0,1.12,1.12,0,0,1,0,1.584l-2,2-6,6,1.414,1.414,6-6a1.145,1.145,0,0,1,1.586,0,1.12,1.12,0,0,1,0,1.584Z" style="fill:#ea9d63"/><path d="M19,27l8-5,6-4,2-3c1-3,3.788-2.9,5-1l4,7,7,5c1.843,1,1.594,3.633,0,5l-3,3L29,51a3.063,3.063,0,0,1-5-2l-2-8-7-8c-1.388-1.666-1.085-4.4,1-5Z" style="fill:#195c85"/><path d="M34,22l0,0a2.12,2.12,0,0,0,0,3l-1-1a2.12,2.12,0,0,0-3,0l0,0a2.12,2.12,0,0,0,0,3l-1-1a2.12,2.12,0,0,0-3,0l0,0a2.12,2.12,0,0,0,0,3l2,2a2.12,2.12,0,0,0-3,0l0,0a2.12,2.12,0,0,0,0,3l9.622,10H28a2,2,0,0,0,0,4H38.622l7,2L54,61h7V51l-8.378-8-4-9L37,22A2.12,2.12,0,0,0,34,22Z" style="fill:#ffd782"/><path d="M61.69,50.277l-8.234-7.864-3.92-8.819a1.016,1.016,0,0,0-.2-.29L37.707,21.293a3.194,3.194,0,0,0-4.413,0h0a3.12,3.12,0,0,0-.768,1.256,3.176,3.176,0,0,0-3.232.744,3.118,3.118,0,0,0-.767,1.256,3.178,3.178,0,0,0-3.234.743,3.121,3.121,0,0,0-.059,4.353,3.138,3.138,0,0,0-.94.648,3.12,3.12,0,0,0-.014,4.4L32.272,43H28a3,3,0,0,0,0,6H38.482l6.546,1.87,8.177,10.737A1,1,0,0,0,54,62h7a1,1,0,0,0,1-1V51A1,1,0,0,0,61.69,50.277ZM60,60H54.5L46.417,49.394a1,1,0,0,0-.52-.355l-7-2A.983.983,0,0,0,38.622,47H28a1,1,0,0,1,0-2h6.622a1,1,0,0,0,.721-1.693L25.707,33.293a1.12,1.12,0,0,1,0-1.586,1.137,1.137,0,0,1,1.471-.073l7.72,8.058,1.444-1.384L28.8,30.434a.935.935,0,0,0-.094-.141l-2-2a1.12,1.12,0,0,1,0-1.586,1.147,1.147,0,0,1,1.584,0l.986.986,8.622,9,1.444-1.384-8.622-9,0,0c-.005,0-.007-.013-.012-.018a1.12,1.12,0,0,1,0-1.586,1.148,1.148,0,0,1,1.584,0l.984.984,7.621,8,1.448-1.38-7.621-8,0,0c-.006-.007-.008-.016-.014-.022a1.12,1.12,0,0,1,0-1.584l0,0h0a1.157,1.157,0,0,1,1.573-.011l11.5,11.872,3.928,8.838a.994.994,0,0,0,.224.317L60,51.428Z" style="fill:#ea9d63"/></g></svg>
