<svg height="512" viewBox="0 0 59 56" width="512" xmlns="http://www.w3.org/2000/svg"><g id="Page-1" fill="none" fill-rule="evenodd"><g id="023---Clean-Towels" fill-rule="nonzero"><path id="Shape" d="m56.24 31.24c1.1308021-1.1206101 1.7648139-2.6480021 1.76-4.24-.0044524-2.9944626-2.2139879-5.528177-5.18-5.94.74-.27 1.34-.5 1.81-.67.5979784-.2892925 1.142406-.6781693 1.61-1.15 1.1308021-1.1206101 1.7648139-2.6480021 1.76-4.24 0-3.3137085-2.6862915-6-6-6h-30c-.5205871-.0017412-1.0388863.06893596-1.54.21l-.04.01c-.37.09-15.99 5.99-15.99 5.99l-.02.01c-1.00521395.2669765-1.9203706.7988034-2.65 1.54-1.13080213 1.1206101-1.76481393 2.6480021-1.76 4.24 0 3.3137085 2.6862915 6 6 6-3.31165334.0049563-5.99504366 2.6883467-6 6 0 3.3137085 2.6862915 6 6 6-3.31165334.0049563-5.99504366 2.6883467-6 6 0 3.3137085 2.6862915 6 6 6h30c.9195547.0024526 1.8269787-.2098504 2.65-.62h.01l16-6c2.3632736-1.1659116 3.6872037-3.7391814 3.2618079-6.3398448-.4253959-2.6006634-2.5002197-4.617992-5.1118079-4.9701552l1.82-.68c.5979784-.2892925 1.142406-.6781693 1.61-1.15z" fill="#2980ba"/><path id="Shape" d="m42 21c-.0075002 2.2803248-1.2996557 4.361701-3.34 5.38h-.01c-.8230213.4101496-1.7304453.6224526-2.65.62h-30c-3.3137085 0-6-2.6862915-6-6-.00481393-1.5919979.62919787-3.1193899 1.76-4.24.7296294-.7411966 1.64478605-1.2730235 2.65-1.54l.02-.01c.51134771-.1410741 1.03955169-.2117256 1.57-.21h30c3.3137085 0 6 2.6862915 6 6z" fill="#f3d55b"/><path id="Shape" d="m42 33c-.0075002 2.2803248-1.2996557 4.361701-3.34 5.38h-.01c-.8230213.4101496-1.7304453.6224526-2.65.62h-30c-3.3137085 0-6-2.6862915-6-6 .00495634-3.3116533 2.68834666-5.9950437 6-6h30c3.3137085 0 6 2.6862915 6 6z" fill="#7ed09e"/><path id="Shape" d="m42 45c-.0075002 2.2803248-1.2996557 4.361701-3.34 5.38h-.01c-.8230213.4101496-1.7304453.6224526-2.65.62h-30c-3.3137085 0-6-2.6862915-6-6 .00495634-3.3116533 2.68834666-5.9950437 6-6h30c1.5912989 0 3.1174224.632141 4.2426407 1.7573593s1.7573593 2.6513418 1.7573593 4.2426407z" fill="#3b97d3"/><path id="Shape" d="m58 15c.0048139 1.5919979-.6291979 3.1193899-1.76 4.24-.467594.4718307-1.0120216.8607075-1.61 1.15-.47.17-1.07.4-1.81.67-2.67 1.01-7.19 2.71-14.16 5.32 2.500815-1.2347123 3.8210834-4.0298424 3.1862811-6.7456509-.6348024-2.7158086-3.0572692-4.6360989-5.8462811-4.6343491h-30c-.53044831-.0017256-1.05865229.0689259-1.57.21 0 0 15.62-5.9 15.99-5.99l.04-.01c.5011137-.14106404 1.0194129-.2117412 1.54-.21h30c3.3137085 0 6 2.6862915 6 6z" fill="#f0c419"/><path id="Shape" d="m58 27c.0048139 1.5919979-.6291979 3.1193899-1.76 4.24-.467594.4718307-1.0120216.8607075-1.61 1.15l-1.82.68-14.15 5.31c2.500815-1.2347123 3.8210834-4.0298424 3.1862811-6.7456509-.6348024-2.7158086-3.0572692-4.6360989-5.8462811-4.6343491.9195547.0024526 1.8269787-.2098504 2.65-.62h.01c6.97-2.61 11.49-4.31 14.16-5.32 2.9660121.411823 5.1755476 2.9455374 5.18 5.94z" fill="#71c285"/><path id="Shape" d="m37 22h-32c-.55228475 0-1-.4477153-1-1s.44771525-1 1-1h32c.5522847 0 1 .4477153 1 1s-.4477153 1-1 1z" fill="#f0c419"/><path id="Shape" d="m37 34h-32c-.55228475 0-1-.4477153-1-1s.44771525-1 1-1h32c.5522847 0 1 .4477153 1 1s-.4477153 1-1 1z" fill="#71c285"/><path id="Shape" d="m37 46h-32c-.55228475 0-1-.4477153-1-1s.44771525-1 1-1h32c.5522847 0 1 .4477153 1 1s-.4477153 1-1 1z" fill="#2980ba"/><g fill="#ff5364"><path id="Shape" d="m9 4c-.55228475 0-1-.44771525-1-1v-2c0-.55228475.44771525-1 1-1s1 .44771525 1 1v2c0 .55228475-.44771525 1-1 1z"/><path id="Shape" d="m9 10c-.55228475 0-1-.44771525-1-1v-2c0-.55228475.44771525-1 1-1s1 .44771525 1 1v2c0 .55228475-.44771525 1-1 1z"/><path id="Shape" d="m7 6h-2c-.55228475 0-1-.44771525-1-1s.44771525-1 1-1h2c.55228475 0 1 .44771525 1 1s-.44771525 1-1 1z"/><path id="Shape" d="m13 6h-2c-.5522847 0-1-.44771525-1-1s.4477153-1 1-1h2c.5522847 0 1 .44771525 1 1s-.4477153 1-1 1z"/></g><path id="Shape" d="m58 56c-.2651948-.0000566-.5195073-.1054506-.707-.293l-1.5-1.5c-.3789722-.3923789-.3735524-1.0160848.0121814-1.4018186s1.0094397-.3911536 1.4018186-.0121814l1.5 1.5c.2859079.2859943.3714219.7160366.216678 1.0896546-.1547439.3736179-.5192821.6172591-.923678.6173454z" fill="#894b9d"/><path id="Shape" d="m53.5 51.5c-.2651948-.0000566-.5195073-.1054506-.707-.293l-1.5-1.5c-.3789722-.3923789-.3735524-1.0160848.0121814-1.4018186s1.0094397-.3911536 1.4018186-.0121814l1.5 1.5c.2859079.2859943.3714219.7160366.216678 1.0896546-.1547439.3736179-.5192821.6172591-.923678.6173454z" fill="#894b9d"/><path id="Shape" d="m52 56c-.4043959-.0000863-.7689341-.2437275-.923678-.6173454-.1547439-.373618-.0692299-.8036603.216678-1.0896546l1.5-1.5c.3923789-.3789722 1.0160848-.3735524 1.4018186.0121814s.3911536 1.0094397.0121814 1.4018186l-1.5 1.5c-.1874927.1875494-.4418052.2929434-.707.293z" fill="#894b9d"/><path id="Shape" d="m56.5 51.5c-.4043959-.0000863-.7689341-.2437275-.923678-.6173454-.1547439-.373618-.0692299-.8036603.216678-1.0896546l1.5-1.5c.3923789-.3789722 1.0160848-.3735524 1.4018186.0121814s.3911536 1.0094397.0121814 1.4018186l-1.5 1.5c-.1874927.1875494-.4418052.2929434-.707.293z" fill="#894b9d"/></g></g></svg>