<svg id="Capa_1" enable-background="new 0 0 512 512" height="512" viewBox="0 0 512 512" width="512" xmlns="http://www.w3.org/2000/svg"><g><path d="m497 113h-116v30h116c8.284 0 15-6.716 15-15s-6.716-15-15-15z" fill="#293939"/><path d="m497 183c-8.284 0-15-6.716-15-15v-80c0-8.284 6.716-15 15-15s15 6.716 15 15v80c0 8.284-6.716 15-15 15z" fill="#384949"/><path d="m447 313v-197c0-1-.02-2-.06-3-1.58-39.97-34.59-72-74.94-72h-248c-.31 0-.61 0-.92.01l.91 260.06c2.7-5.27 11.44-19.51 27.05-19.3 19.15.25 31.96 21.23 31.96 21.23v10s8.89 7.7 8.89 15-8.89 15-8.89 15v34s15.36 7.36 15.36 15-15.36 15-15.36 15v34c0 16.57 13.43 30 30 30h204c16.57 0 30-13.43 30-30v-34s-15.36-7.36-15.36-15 15.36-15 15.36-15v-34s-8.89-7.7-8.89-15 8.89-15 8.89-15z" fill="#fed843"/><path d="m438.11 328c0 7.3 8.89 15 8.89 15v34s-15.36 7.36-15.36 15 15.36 15 15.36 15v34c0 16.57-13.43 30-30 30h-102v-430h57c40.35 0 73.36 32.03 74.94 72 .04 1 .06 2 .06 3v197s-8.89 7.7-8.89 15z" fill="#fabe2c"/><path d="m183 377h264v30h-264z" fill="#edf5ff"/><path d="m315 377h132v30h-132z" fill="#d5e8fe"/><path d="m183 313h264v30h-264z" fill="#edf5ff"/><path d="m315 313h132v30h-132z" fill="#d5e8fe"/><path d="m123.084 41.007c-32.374.494-58.084 27.511-58.084 59.888v172.105c0 16.569 13.431 30 30 30h88v-203c0-32.838-26.966-59.496-59.916-58.993z" fill="#ff9100"/><path d="m183 113h-168c-8.284 0-15 6.716-15 15s6.716 15 15 15h168z" fill="#384949"/><path d="m15 183c-8.284 0-15-6.716-15-15v-80c0-8.284 6.716-15 15-15s15 6.716 15 15v80c0 8.284-6.716 15-15 15z" fill="#4a696f"/></g></svg>